<?xml version="1.0" encoding="UTF-8"?>
<svg width="150px" height="28px" viewBox="0 0 150 28" version="1.1" xmlns="http://www.w3.org/2000/svg" xmlns:xlink="http://www.w3.org/1999/xlink">
    <!-- Generator: sketchtool 40 (33762) - http://www.bohemiancoding.com/sketch -->
    <title>4D40572F-F761-49A5-BBC8-E8211F242DFA</title>
    <desc>Created with sketchtool.</desc>
    <defs></defs>
    <g id="spec" stroke="none" stroke-width="1" fill="none" fill-rule="evenodd">
        <g id="icons" transform="translate(-609.000000, -200.000000)" fill="#FFFFFF">
            <g transform="translate(197.000000, 136.000000)" id="logo-navbar-S">
                <g transform="translate(412.000000, 64.000000)">
                    <g id="Typography" transform="translate(30.704022, 4.217370)">
                        <g id="Group">
                            <path d="M53.8233887,2.83272855 C53.8233887,2.83272855 54.43432,2.56044458 54.5867904,1.89647235 L55.9430158,1.89647235 L55.9430158,3.03727101 L53.7556824,3.03727101 L53.8233887,2.83272855 L53.8233887,2.83272855 Z" id="Fill-8"></path>
                            <path d="M58.0820889,6.48497123 C58.0820889,6.48497123 58.6924954,6.21242367 58.8452282,5.54792426 L60.2019785,5.54792426 L60.2019785,6.68898651 L58.014645,6.68898651 L58.0820889,6.48497123 Z" id="Fill-10"></path>
                            <path d="M55.519694,9.71581953 C55.519694,9.71581953 56.1295756,9.44274481 56.2828333,8.77877257 L57.6390588,8.77877257 L57.6390588,9.92036199 L55.4514628,9.92036199 L55.519694,9.71581953 Z" id="Fill-12"></path>
                            <polygon id="Fill-14" points="46.48064 3.24711154 55.9382659 3.24711154 55.9382659 2.82036638 46.48064 2.82036638"></polygon>
                            <polygon id="Fill-16" points="44.5916866 6.88775645 60.2069122 6.88775645 60.2069122 6.46153846 44.5916866 6.46153846"></polygon>
                            <polygon id="Fill-17" points="49.6505022 10.1351316 57.0126442 10.1351316 57.0126442 9.6757018 49.6505022 9.6757018"></polygon>
                            <polygon id="Fill-18" points="48.8435375 13.3485042 57.0724777 13.3485042 57.0724777 12.921759 48.8435375 12.921759"></polygon>
                            <polygon id="Fill-19" points="48.8435375 16.273514 57.0724777 16.273514 57.0724777 15.8465053 48.8435375 15.8465053"></polygon>
                            <polygon id="Fill-20" points="48.1764467 18.0340025 49.5030179 18.0340025 49.5030179 10.4221763 48.1764467 10.4221763"></polygon>
                            <polygon id="Fill-21" points="56.2796841 18.0637877 57.6456194 18.0637877 57.6456194 9.77085621 56.2796841 9.77085621"></polygon>
                            <polygon id="Fill-22" points="50.7923244 6.87194131 52.1776793 6.87194131 52.1776793 0.316829943 50.7923244 0.316829943"></polygon>
                            <path d="M57.4727847,1.37992356 C57.4727847,1.37992356 53.9071818,8.48935553 43.3439487,12.7167421 L43.478574,13.0936696 C43.478574,13.0936696 53.7720316,10.1586434 58.7326993,2.16092782 L57.4727847,1.37992356 Z" id="Fill-23"></path>
                            <path d="M37.2954664,2.91612705 C37.2954664,2.91612705 37.9056104,2.64357949 38.0583432,1.97960726 L39.4148311,1.97960726 L39.4148311,3.12066951 L37.2269728,3.12066951 L37.2954664,2.91612705 Z" id="Fill-36"></path>
                            <path d="M36.8210761,13.4748671 C36.8210761,13.4748671 37.4314826,13.2017924 37.5844778,12.5378201 L38.9409657,12.5378201 L38.9409657,13.6788824 L36.752845,13.6788824 L36.8210761,13.4748671 Z" id="Fill-37"></path>
                            <polygon id="Fill-38" points="28.3217043 3.34859201 39.4074307 3.34859201 39.4074307 2.92237403 28.3217043 2.92237403"></polygon>
                            <polygon id="Fill-39" points="29.5223103 4.89373105 37.8081973 4.89373105 37.8081973 4.43430128 29.5223103 4.43430128"></polygon>
                            <polygon id="Fill-40" points="29.5419924 6.49764969 37.8281418 6.49764969 37.8281418 6.07090454 29.5419924 6.07090454"></polygon>
                            <polygon id="Fill-41" points="29.5223103 8.01115846 37.8081973 8.01115846 37.8081973 7.5844133 29.5223103 7.5844133"></polygon>
                            <polygon id="Fill-42" points="29.5223103 9.565523 37.8081973 9.565523 37.8081973 9.13877784 29.5223103 9.13877784"></polygon>
                            <polygon id="Fill-43" points="22.1887729 6.68980363 26.4219914 6.68980363 26.4219914 6.26305847 22.1887729 6.26305847"></polygon>
                            <polygon id="Fill-44" points="25.262849 9.93665158 26.650041 9.93665158 26.650041 6.23485481 25.262849 6.23485481"></polygon>
                            <path d="M37.7321458,2.92023898 C37.7321458,2.92023898 38.21475,2.70488951 38.3354667,2.17956333 L39.4072207,2.17956333 L39.4072207,3.08181698 L37.6780857,3.08181698 L37.7321458,2.92023898 Z" id="Fill-45"></path>
                            <path d="M24.9741787,6.24684796 C24.9741787,6.24684796 25.456783,6.03149848 25.5774996,5.50643588 L26.6489912,5.50643588 L26.6489912,6.40842595 L24.9201186,6.40842595 L24.9741787,6.24684796 Z" id="Fill-46"></path>
                            <polygon id="Fill-47" points="23.2405824 13.8224311 38.9405721 13.8224311 38.9405721 13.395686 23.2405824 13.395686"></polygon>
                            <path d="M37.2509849,13.3936564 C37.2509849,13.3936564 37.7335891,13.1788341 37.8543058,12.6532443 L38.9265847,12.6532443 L38.9265847,13.5557615 L37.1969248,13.5557615 L37.2509849,13.3936564 Z" id="Fill-48"></path>
                            <path d="M36.4543599,4.46134517 C36.4543599,4.46134517 36.9595329,4.23597944 37.0865478,3.68613979 L38.2092128,3.68613979 L38.2092128,4.63056715 L36.3982004,4.63056715 L36.4543599,4.46134517 Z" id="Fill-49"></path>
                            <path d="M25.2450564,6.2596055 C25.2450564,6.2596055 25.6491948,6.07825858 25.7507543,5.63807055 L26.6500934,5.63807055 L26.6500934,6.39508852 L25.199394,6.39508852 L25.2450564,6.2596055 Z" id="Fill-50"></path>
                            <path d="M23.5218523,1.57104951 L23.7428162,1.227861 C23.7428162,1.227861 25.7532736,1.712595 26.6583862,3.46912973 L25.6126124,4.2169222 C25.6126124,4.2169222 24.466329,2.035751 23.5218523,1.57104951" id="Fill-51"></path>
                            <path d="M29.8550947,0.38812986 L30.0477165,0.151693538 C30.0477165,0.151693538 31.3748125,0.30220094 32.3161401,1.72081887 L31.1611965,2.34393533 C31.1611965,2.34393533 30.7329148,1.05473795 29.8550947,0.38812986" id="Fill-52"></path>
                            <path d="M34.8840198,0.56676185 C34.8840198,0.56676185 34.2473706,2.68256381 34.0059372,3.0792602 L34.3788468,3.0792602 C34.3788468,3.0792602 35.6518827,1.75711462 36.5073965,0.610517067 L34.8840198,0.56676185 Z" id="Fill-53"></path>
                            <polygon id="Fill-54" points="22.637314 10.763467 25.3715465 9.51117164 25.5728284 9.8551509 23.5219572 12.2780301"></polygon>
                            <path d="M26.5778209,9.15003295 C26.5778209,9.15003295 27.2144701,10.7188947 31.1280519,10.8132584 C31.1280519,10.8132584 36.2425021,11.0826429 38.8229521,10.624531 L38.8229521,11.7347538 C38.8229521,11.7347538 27.9650128,12.9467206 26.3972708,9.51325396 L26.5778209,9.15003295 Z" id="Fill-55"></path>
                            <polygon id="Fill-56" points="28.9221385 10.1064007 30.2689167 10.1064007 30.2689167 3.8391249 28.9221385 3.8391249"></polygon>
                            <polygon id="Fill-57" points="36.8393148 10.1290691 38.205775 10.1290691 38.205775 4.45644247 36.8393148 4.45644247"></polygon>
                            <path d="M27.8774145,14.9713219 L28.0981161,14.7491192 C28.0981161,14.7491192 29.6669079,15.1120766 30.5914401,16.485885 L29.5464536,17.3942011 C29.5464536,17.3942011 28.2991356,15.1120766 27.8774145,14.9713219" id="Fill-58"></path>
                            <path d="M33.9333498,12.352045 L35.2974481,12.352045 L35.2974481,16.8988973 C35.2974481,17.3485744 35.1903777,17.7837543 34.8245537,18.0534025 C34.6188105,18.2054914 34.2067993,18.4113518 33.9417474,18.3346483 C33.5948182,18.233695 33.6593754,17.7884989 33.4733143,17.5562799 C33.2767561,17.3116725 32.8072732,17.2521021 32.5141417,17.2521021 L32.5251636,16.9653209 L33.3615202,16.9653209 C33.3615202,16.9653209 33.9496203,17.0536221 33.9496203,16.4787418 C33.9496203,15.9046523 33.9333498,12.352045 33.9333498,12.352045" id="Fill-59"></path>
                            <polygon id="Fill-84" points="0.706979777 3.90712999 9.26080525 3.90712999 9.26080525 3.48460221 0.706979777 3.48460221"></polygon>
                            <polygon id="Fill-85" points="10.6351383 2.2325704 15.8506231 2.2325704 15.8506231 1.80977903 10.6351383 1.80977903"></polygon>
                            <polygon id="Fill-86" points="10.9537253 9.242367 16.9937574 9.242367 16.9937574 8.85278742 10.9537253 8.85278742"></polygon>
                            <polygon id="Fill-87" points="3.9581945 6.89355533 5.33226507 6.89355533 5.33226507 0.6370865 3.9581945 0.6370865"></polygon>
                            <polygon id="Fill-88" points="10.1231421 18.0927821 11.3995897 18.0927821 11.3995897 0.828713263 10.1231421 0.828713263"></polygon>
                            <polygon id="Fill-89" points="3.9581945 18.195317 5.33226507 18.195317 5.33226507 10.1306506 3.9581945 10.1306506"></polygon>
                            <path d="M7.16511145,3.48075385 C7.16511145,3.48075385 7.76921964,3.21084216 7.9203779,2.55345956 L9.26348202,2.55345956 L9.26348202,3.68318763 L7.09766758,3.68318763 L7.16511145,3.48075385 Z" id="Fill-90"></path>
                            <path d="M7.16511145,13.1761455 C7.16511145,13.1761455 7.76921964,12.9062338 7.9203779,12.248324 L9.26348202,12.248324 L9.26348202,13.3788429 L7.09766758,13.3788429 L7.16511145,13.1761455 Z" id="Fill-91"></path>
                            <path d="M14.4825883,1.85392962 C14.4825883,1.85392962 15.0872214,1.58401792 15.2389045,0.926371744 L16.5814837,0.926371744 L16.5814837,2.0563634 L14.4151445,2.0563634 L14.4825883,1.85392962 Z" id="Fill-92"></path>
                            <path d="M7.2299573,9.90127839 C7.2299573,9.90127839 7.83406548,9.63136669 7.98496131,8.97292975 L9.32832786,8.97292975 L9.32832786,10.1037122 L7.16251342,10.1037122 L7.2299573,9.90127839 Z" id="Fill-93"></path>
                            <path d="M7.20200876,6.63695471 C7.20200876,6.63695471 7.80637937,6.36704301 7.95780006,5.70966041 L9.30037933,5.70966041 L9.30037933,6.83859772 L7.13456489,6.83859772 L7.20200876,6.63695471 Z" id="Fill-94"></path>
                            <polygon id="Fill-95" points="0.0267676085 7.06541317 9.29859482 7.06541317 9.29859482 6.6426218 0.0267676085 6.6426218"></polygon>
                            <polygon id="Fill-96" points="0.0789906878 10.3093617 9.32037631 10.3093617 9.32037631 9.8868339 0.0789906878 9.8868339"></polygon>
                            <path d="M7.65934123,9.86601063 C7.65934123,9.86601063 8.13748419,9.65197909 8.25610144,9.13245179 L9.31788324,9.13245179 L9.31788324,10.0254799 L7.60580601,10.0254799 L7.65934123,9.86601063 Z" id="Fill-97"></path>
                            <polygon id="Fill-98" points="0.712753183 13.5198348 9.26552895 13.5198348 9.26552895 13.0967799 0.712753183 13.0967799"></polygon>
                            <path d="M1.98767863,7.53570268 L2.27976048,7.36279049 C2.27976048,7.36279049 3.38143126,8.48250231 3.87217075,9.49572552 L2.79753,9.96227211 C2.79753,9.96227211 2.25378015,7.8161578 1.98767863,7.53570268" id="Fill-99"></path>
                            <path d="M6.07632586,7.22886263 L7.70888755,7.88308219 C7.70888755,7.88308219 6.18182172,9.5225849 5.67769843,9.92191715 L5.46539456,9.7888064 C5.46539456,9.7888064 5.89026473,8.48194878 6.07632586,7.22886263" id="Fill-100"></path>
                            <path d="M15.2484568,1.80772306 L15.2484568,6.17243773 L15.2484568,6.4832052 C15.2484568,6.4832052 15.3198371,7.10526732 14.7957694,7.10526732 L14.2483455,7.10526732 L14.2483455,7.41498045 C14.2483455,7.41498045 15.0337911,7.46374379 15.0337911,7.91842903 C15.0337911,8.37205992 16.5815887,8.70681369 16.5815887,6.4832052 L16.5815887,1.75975047 L15.2484568,1.80772306 Z" id="Fill-101"></path>
                            <path d="M15.6184009,8.83728858 C15.6184009,8.83728858 15.1533794,14.3762773 11.7675393,18.2272635 L11.9100375,18.4615912 C11.9100375,18.4615912 16.3122593,14.6464526 17.0260622,8.95801081 L15.6184009,8.83728858 Z" id="Fill-102"></path>
                            <path d="M12.1935117,9.76176251 C12.1935117,9.76176251 13.1492728,14.8547643 17.8477753,16.9544875 L16.7726097,18.3338312 C16.7726097,18.3338312 12.7708523,16.3606291 11.8948691,9.82159645 L12.1935117,9.76176251 Z" id="Fill-103"></path>
                        </g>
                        <g id="Group" transform="translate(65.606884, 2.108685)">
                            <polygon id="Fill-305" points="1.49113949 4.91297281 2.1802742 4.91297281 2.1802742 0.664499407 0.894641707 0.664499407 0.894641707 1.52009841 0.220727799 1.52009841 0.220727799 0.0263585643 4.91503153 0.0263585643 4.91503153 1.52009841 4.24111762 1.52009841 4.24111762 0.664499407 2.95548513 0.664499407 2.95548513 4.91297281 3.64461984 4.91297281 3.64461984 5.52001054 1.49113949 5.52001054"></polygon>
                            <polygon id="Fill-306" points="7.09834989 4.91297281 7.78013662 4.91297281 7.78013662 0.625488732 7.09834989 0.625488732 7.09834989 0.0263585643 9.24421983 0.0263585643 9.24421983 0.625488732 8.55456027 0.625488732 8.55456027 2.45424593 11.3900898 2.45424593 11.3900898 0.625488732 10.7009551 0.625488732 10.7009551 0.0263585643 12.8465626 0.0263585643 12.8465626 0.625488732 12.1647759 0.625488732 12.1647759 4.91297281 12.8465626 4.91297281 12.8465626 5.52001054 10.7009551 5.52001054 10.7009551 4.91297281 11.3900898 4.91297281 11.3900898 3.09212318 8.55456027 3.09212318 8.55456027 4.91297281 9.24421983 4.91297281 9.24421983 5.52001054 7.09834989 5.52001054"></polygon>
                            <polygon id="Fill-307" points="15.2156534 4.91297281 15.8974401 4.91297281 15.8974401 0.625488732 15.2156534 0.625488732 15.2156534 0.0263585643 19.1741103 0.0263585643 19.1741103 1.30237666 18.5004589 1.30237666 18.5004589 0.664499407 16.6718638 0.664499407 16.6718638 2.43025963 18.608579 2.43025963 18.608579 3.06866406 16.6718638 3.06866406 16.6718638 4.88213329 18.631935 4.88213329 18.631935 4.22026974 19.305849 4.22026974 19.305849 5.52001054 15.2156534 5.52001054"></polygon>
                            <path d="M2.74344369,12.1529587 C3.33994147,12.1529587 3.73515734,11.7641699 3.73515734,11.1183851 C3.73515734,10.6905856 3.56457944,10.3948425 3.2239485,10.2548785 C3.04549778,10.1850283 2.81324941,10.1536616 2.54977217,10.1536616 L1.64334746,10.1536616 L1.64334746,12.1529587 L2.74344369,12.1529587 Z M0.186874647,14.402135 L0.868923809,14.402135 L0.868923809,10.114651 L0.186874647,10.114651 L0.186874647,9.5155208 L2.55764499,9.5155208 C2.94498803,9.5155208 3.26252535,9.53107235 3.56457944,9.63176207 C4.1379836,9.82681545 4.51719139,10.3094408 4.51719139,11.0564425 C4.51719139,11.8500988 4.0836611,12.4173351 3.38612872,12.596837 L3.38612872,12.6123885 C3.38612872,12.6123885 3.52574016,12.6901463 3.61863951,12.8691209 L4.39358802,14.2228968 C4.47887697,14.3712955 4.57964914,14.402135 4.77305824,14.402135 L4.93576331,14.402135 L4.93576331,15.0091728 L4.47100414,15.0091728 C4.00624498,15.0091728 3.89759998,14.923771 3.71206371,14.5963977 L2.86730948,13.0947503 C2.72796046,12.861477 2.62718829,12.7916268 2.29416775,12.7916268 L1.64334746,12.7916268 L1.64334746,14.402135 L2.31726137,14.402135 L2.31726137,15.0091728 L0.186874647,15.0091728 L0.186874647,14.402135 Z" id="Fill-308"></path>
                            <polygon id="Fill-309" points="7.13461737 14.4021878 7.81640411 14.4021878 7.81640411 10.1147037 7.13461737 10.1147037 7.13461737 9.51557352 11.0930743 9.51557352 11.0930743 10.7915916 10.4194228 10.7915916 10.4194228 10.1537144 8.59082776 10.1537144 8.59082776 11.9194746 10.5278054 11.9194746 10.5278054 12.557879 8.59082776 12.557879 8.59082776 14.3713482 10.5511614 14.3713482 10.5511614 13.7094847 11.2250753 13.7094847 11.2250753 15.0092255 7.13461737 15.0092255"></polygon>
                            <path d="M16.0498581,12.3089487 C16.2978521,12.3089487 16.491786,12.2696745 16.6618391,12.2003514 C17.0106053,12.0445723 17.2121496,11.6940034 17.2121496,11.2195493 C17.2121496,10.7759346 17.0336989,10.449352 16.723772,10.2861925 C16.5537189,10.1926196 16.3212081,10.1536089 16.0579933,10.1536089 L15.0350508,10.1536089 L15.0350508,12.3089487 L16.0498581,12.3089487 Z M13.578578,14.4020823 L14.2606271,14.4020823 L14.2606271,10.1148618 L13.578578,10.1148618 L13.578578,9.51546808 L16.1275366,9.51546808 C16.4605571,9.51546808 16.7935777,9.53919079 17.0649278,9.66333963 C17.6304591,9.90452049 17.9944461,10.4883627 17.9944461,11.2195493 C17.9944461,11.9897465 17.5913574,12.6123358 16.9641556,12.8303211 C16.7082887,12.923894 16.4450739,12.9470896 16.1427574,12.9470896 L15.0350508,12.9470896 L15.0350508,14.4020823 L15.7247103,14.4020823 L15.7247103,15.0091201 L13.578578,15.0091201 L13.578578,14.4020823 Z" id="Fill-310"></path>
                            <path d="M22.958814,14.4096472 C24.0665206,14.4096472 24.9653349,13.4604753 24.9653349,12.2232043 C24.9653349,11.0246804 24.0665206,10.1071388 22.958814,10.1071388 C21.8432345,10.1071388 20.9444202,11.0246804 20.9444202,12.2232043 C20.9444202,13.4604753 21.8432345,14.4096472 22.958814,14.4096472 M22.958814,9.42234328 C24.5391526,9.42234328 25.7709874,10.6437991 25.7709874,12.2232043 C25.7709874,13.8418838 24.5391526,15.1020867 22.958814,15.1020867 C21.370865,15.1020867 20.1466405,13.8418838 20.1466405,12.2232043 C20.1466405,10.6437991 21.370865,9.42234328 22.958814,9.42234328" id="Fill-311"></path>
                            <path d="M30.603433,12.1529587 C31.1999308,12.1529587 31.5948843,11.7641699 31.5948843,11.1183851 C31.5948843,10.6905856 31.4245688,10.3948425 31.0839378,10.2548785 C30.9054871,10.1850283 30.6732388,10.1536616 30.4097615,10.1536616 L29.5033368,10.1536616 L29.5033368,12.1529587 L30.603433,12.1529587 Z M28.0471264,14.402135 L28.7286507,14.402135 L28.7286507,10.114651 L28.0471264,10.114651 L28.0471264,9.5155208 L30.4176343,9.5155208 C30.8047149,9.5155208 31.1222523,9.53107235 31.4245688,9.63176207 C31.9979729,9.82681545 32.3774432,10.3094408 32.3774432,11.0564425 C32.3774432,11.8500988 31.9436504,12.4173351 31.2463805,12.596837 L31.2463805,12.6123885 C31.2463805,12.6123885 31.3857295,12.6901463 31.4788913,12.8691209 L32.2533149,14.2228968 C32.3388663,14.3712955 32.4396385,14.402135 32.6330476,14.402135 L32.7957527,14.402135 L32.7957527,15.0091728 L32.3312559,15.0091728 C31.8662343,15.0091728 31.7573269,14.923771 31.5717906,14.5963977 L30.7275613,13.0947503 C30.5879498,12.861477 30.4874401,12.7916268 30.1541571,12.7916268 L29.5033368,12.7916268 L29.5033368,14.402135 L30.1772507,14.402135 L30.1772507,15.0091728 L28.0471264,15.0091728 L28.0471264,14.402135 Z" id="Fill-312"></path>
                            <polygon id="Fill-313" points="36.0481483 14.4021878 36.7375454 14.4021878 36.7375454 10.1537144 35.4516505 10.1537144 35.4516505 11.0093134 34.7777366 11.0093134 34.7777366 9.51557352 39.4720403 9.51557352 39.4720403 11.0093134 38.7983889 11.0093134 38.7983889 10.1537144 37.5124939 10.1537144 37.5124939 14.4021878 38.2018911 14.4021878 38.2018911 15.0092255 36.0481483 15.0092255"></polygon>
                            <polygon id="Fill-314" points="41.6554899 14.4021878 42.3372766 14.4021878 42.3372766 10.1147037 41.6554899 10.1147037 41.6554899 9.51557352 45.6142093 9.51557352 45.6142093 10.7915916 44.9400329 10.7915916 44.9400329 10.1537144 43.1119627 10.1537144 43.1119627 11.9194746 45.0484155 11.9194746 45.0484155 12.557879 43.1119627 12.557879 43.1119627 14.3713482 45.072034 14.3713482 45.072034 13.7094847 45.7459479 13.7094847 45.7459479 15.0092255 41.6554899 15.0092255"></polygon>
                            <path d="M50.6559408,12.1529587 C51.2524386,12.1529587 51.647392,11.7641699 51.647392,11.1183851 C51.647392,10.6905856 51.4770766,10.3948425 51.1361832,10.2548785 C50.9579949,10.1850283 50.7257465,10.1536616 50.4622693,10.1536616 L49.5558446,10.1536616 L49.5558446,12.1529587 L50.6559408,12.1529587 Z M48.0996342,14.402135 L48.7811585,14.402135 L48.7811585,10.114651 L48.0996342,10.114651 L48.0996342,9.5155208 L50.4698797,9.5155208 C50.8574851,9.5155208 51.17476,9.53107235 51.4770766,9.63176207 C52.0499559,9.82681545 52.4299509,10.3094408 52.4299509,11.0564425 C52.4299509,11.8500988 51.9961582,12.4173351 51.2986258,12.596837 L51.2986258,12.6123885 C51.2986258,12.6123885 51.4379749,12.6901463 51.5313991,12.8691209 L52.3058227,14.2228968 C52.3913741,14.3712955 52.4918838,14.402135 52.6855554,14.402135 L52.847998,14.402135 L52.847998,15.0091728 L52.3835013,15.0091728 C51.9182172,15.0091728 51.8098347,14.923771 51.624036,14.5963977 L50.780069,13.0947503 C50.6404576,12.861477 50.5396854,12.7916268 50.2066649,12.7916268 L49.5558446,12.7916268 L49.5558446,14.402135 L50.2300209,14.402135 L50.2300209,15.0091728 L48.0996342,15.0091728 L48.0996342,14.402135 Z" id="Fill-315"></path>
                        </g>
                    </g>
                    <g id="Icon">
                        <polygon id="Fill-1" fill-opacity="0.7" points="25.4554708 22.141194 15.4832245 19.7689233 15.4832245 7.38039801 25.4554708 4.48095594"></polygon>
                        <polygon id="Fill-2" fill-opacity="0.5" points="0 27.1493213 15.7456521 19.7689233 15.7456521 7.38039801 0 0"></polygon>
                    </g>
                </g>
            </g>
        </g>
    </g>
</svg>